<svg width="23" height="23" viewBox="0 0 23 23" fill="none" xmlns="http://www.w3.org/2000/svg">
<path d="M9.58246 16.1387L17.2859 8.43519L15.7562 6.90542L9.58246 13.0791L6.46828 9.96496L4.93851 11.4947L9.58246 16.1387ZM11.1122 22.0392C9.60067 22.0392 8.18017 21.7524 6.85072 21.1787C5.52128 20.605 4.36485 19.8265 3.38143 18.8431C2.398 17.8597 1.61946 16.7032 1.0458 15.3738C0.472134 14.0443 0.185303 12.6238 0.185303 11.1123C0.185303 9.60073 0.472134 8.18023 1.0458 6.85079C1.61946 5.52134 2.398 4.36491 3.38143 3.38149C4.36485 2.39807 5.52128 1.61952 6.85072 1.04586C8.18017 0.472195 9.60067 0.185364 11.1122 0.185364C12.6238 0.185364 14.0443 0.472195 15.3737 1.04586C16.7032 1.61952 17.8596 2.39807 18.843 3.38149C19.8264 4.36491 20.605 5.52134 21.1786 6.85079C21.7523 8.18023 22.0391 9.60073 22.0391 11.1123C22.0391 12.6238 21.7523 14.0443 21.1786 15.3738C20.605 16.7032 19.8264 17.8597 18.843 18.8431C17.8596 19.8265 16.7032 20.605 15.3737 21.1787C14.0443 21.7524 12.6238 22.0392 11.1122 22.0392Z" fill="#1EB700"/>
</svg>
